<?xml version="1.0" encoding="utf-8"?>
<!-- Generator: Adobe Illustrator 24.3.0, SVG Export Plug-In . SVG Version: 6.00 Build 0)  -->
<svg version="1.1" id="Layer_1" xmlns="http://www.w3.org/2000/svg" xmlns:xlink="http://www.w3.org/1999/xlink" x="0px" y="0px"
	 viewBox="0 0 178.2 67" style="enable-background:new 0 0 178.2 67;" xml:space="preserve">
<g id="XMLID_1_">
	<path id="XMLID_26_" d="M15.6,10.2v19.1c0,5.9-3.8,9.5-9.7,9.5c-2,0-4-0.4-5.9-1L1.3,32c0.7,0.2,1.4,0.4,2.2,0.4
		c1.1,0.1,2.2-0.7,2.3-1.9c0-0.1,0-0.2,0-0.4v-20H15.6z M5.3,4.5c0-2.7,2.2-4.4,5.4-4.4s5.4,1.7,5.4,4.4s-2.2,4.3-5.4,4.3
		S5.3,7.2,5.3,4.5L5.3,4.5z"/>
	<path id="XMLID_23_" d="M17.6,20.4c0-6.9,5.4-11.1,13.9-11.1s13.9,4.2,13.9,11.1s-5.4,11.1-13.9,11.1S17.6,27.3,17.6,20.4z
		 M36.1,20.4c0-2.5-1.9-3.9-4.6-3.9c-2.7,0-4.6,1.5-4.6,3.9s1.9,3.9,4.6,3.9C34.2,24.4,36.1,22.9,36.1,20.4z"/>
	<path id="XMLID_22_" d="M47.4,30.7V10.2h9.9v3.1c1.7-2.5,4.4-3.6,7.6-3.6v8c-4.2,0-6.9,1.5-7.6,4.5v8.5H47.4z"/>
	<path id="XMLID_19_" d="M83.2,12.7v-9h9.9v27h-9.9v-2.4c-1.9,2.2-4.7,3.3-7.6,3.2c-6.3,0-10.6-4.1-10.6-11s4.2-11,10.6-11
		C78.5,9.3,81.3,10.5,83.2,12.7z M83.2,22.3v-3.7c-1.1-1.4-2.8-2.2-4.6-2.2c-2.8,0-4.3,1.6-4.3,4s1.5,4,4.3,4
		C80.4,24.5,82.1,23.7,83.2,22.3L83.2,22.3z"/>
	<path id="XMLID_16_" d="M121.2,19.2v7.7c0,1.3,0.3,2.6,0.8,3.8h-9.9c-0.4-0.4-0.6-1-0.6-1.5V29c-1.5,1.5-4.1,2.4-7.2,2.4
		c-4.2,0-9.4-1.6-9.4-6.8s5.2-6.8,9.4-6.8c3.1,0,5.7,0.9,7.2,2.4V19c0-2-2-3.2-5.7-3.2c-2.5,0-4.9,0.5-7.2,1.4l-1.6-6
		c3.5-1.2,7.2-1.8,10.9-1.8C116.3,9.4,121.2,12.9,121.2,19.2z M111.7,24.5c-1.1-1.1-2.6-1.6-4.2-1.6c-1.5,0-3,0.4-3,1.7
		s1.6,1.7,3,1.7c1.6,0.1,3.1-0.5,4.2-1.6c0,0,0-0.1,0-0.1C111.7,24.6,111.7,24.6,111.7,24.5L111.7,24.5z"/>
	<path id="XMLID_15_" d="M124,30.7V10.2h9.9v2.7c1.8-2.3,4.6-3.6,7.5-3.4c5.6,0,9,3.7,9,8.9v12.3h-9.9V18.9c0-1.4-1-2.5-2.4-2.5
		c-0.1,0-0.2,0-0.3,0c-1.4,0-2.6,0.7-3.9,2.4v11.8H124z"/>
	<path id="XMLID_14_" d="M21.6,64.7c-2.4,1.4-5.2,2.2-8,2.1c-5.3,0-9.1-2.9-9.1-8.4v-6.2H1.2v-6.6h3.3v-4.7h9.9v4.7h7v6.6h-7v4.7
		c0,1.5,1,2.5,2.9,2.5c1.1-0.1,2.1-0.3,3.1-0.8L21.6,64.7z"/>
	<path id="XMLID_13_" d="M49.7,53.7V66h-9.9V54.3c0-1.4-1-2.5-2.4-2.5c-0.1,0-0.2,0-0.3,0c-1.4,0-2.6,0.7-3.9,2.4V66h-9.9V39h9.9
		v9.3c1.8-2.3,4.6-3.6,7.5-3.4C46.3,44.8,49.7,48.5,49.7,53.7z"/>
	<path id="XMLID_10_" d="M66.4,60.4c2.2,0.1,4.4-0.5,6.2-1.8l4.7,4.7c-3,2.6-6.9,3.5-11.4,3.5c-9.1,0-14.4-4.1-14.4-11.1
		c0-6.9,5.2-11.1,13.7-11.1c7.3,0,13,3.6,13,10.8c0,0.8-0.1,1.6-0.3,2.3H60.7C61.4,59.8,63.3,60.4,66.4,60.4z M60.8,53.4h8.4
		c-0.6-1.6-1.9-2.4-4.1-2.4C63.1,50.9,61.5,51.7,60.8,53.4z"/>
	<path id="XMLID_9_" d="M100.2,59.4l-2.7,2.7V66h-9.9V39h9.9v13.9l6.5-7.3h10.5l-7.9,8.5l8.3,12h-10.3L100.2,59.4z"/>
	<path id="XMLID_6_" d="M114.9,39.8c0-2.7,2.2-4.3,5.4-4.3s5.4,1.7,5.4,4.3s-2.2,4.3-5.4,4.3S114.9,42.5,114.9,39.8z M125.3,66h-9.9
		V45.5h9.9V66z"/>
	<path id="XMLID_5_" d="M165.9,45.5L158.9,66h-9.2l-3.6-11.4L142.5,66h-9.2l-6.9-20.5h9.3l3.1,10.7l3.3-10.7h8.3l3.3,10.7l3.1-10.7
		H165.9z"/>
	<path id="XMLID_2_" d="M166.5,39.8c0-2.7,2.2-4.3,5.4-4.3s5.4,1.7,5.4,4.3s-2.2,4.3-5.4,4.3S166.5,42.5,166.5,39.8z M176.9,66H167
		V45.5h9.9V66z"/>
</g>
</svg>
