<svg xmlns="http://www.w3.org/2000/svg" width="224" height="107" viewBox="0 0 224 107">
  <g>
    <path d="M36.42,28.836V47.915c0,5.884-3.8,9.5-9.686,9.5a18.846,18.846,0,0,1-5.921-1.024l1.242-5.738a8.022,8.022,0,0,0,2.193.4,2.087,2.087,0,0,0,2.3-2.23V28.836Zm-10.381-5.7c0-2.668,2.23-4.35,5.446-4.35s5.446,1.682,5.446,4.35-2.229,4.349-5.446,4.349S26.039,25.8,26.039,23.134Z"/>
    <path d="M38.394,39.07c0-6.908,5.445-11.112,13.889-11.112s13.889,4.2,13.889,11.112S60.726,50.181,52.283,50.181,38.394,45.978,38.394,39.07Zm18.494,0c0-2.486-1.9-3.948-4.6-3.948-2.669,0-4.606,1.462-4.606,3.948s1.937,3.947,4.606,3.947C54.987,43.017,56.888,41.555,56.888,39.07Z"/>
    <path d="M68.146,49.3V28.836h9.869v3.07c1.718-2.522,4.386-3.582,7.6-3.582v7.968c-4.2,0-6.871,1.535-7.6,4.459V49.3Z"/>
    <path d="M104,31.284V22.256h9.868V49.3H104V46.855a9.367,9.367,0,0,1-7.566,3.18c-6.323,0-10.563-4.057-10.563-10.965s4.24-10.965,10.563-10.965A9.367,9.367,0,0,1,104,31.284Zm0,9.613V37.242a5.544,5.544,0,0,0-4.569-2.193c-2.778,0-4.276,1.608-4.276,4.021s1.5,4.02,4.276,4.02A5.544,5.544,0,0,0,104,40.9Z"/>
    <path d="M141.979,37.79V45.5a8.08,8.08,0,0,0,.841,3.8h-9.869a2.4,2.4,0,0,1-.621-1.536v-.109c-1.535,1.5-4.13,2.376-7.237,2.376-4.167,0-9.357-1.645-9.357-6.762s5.19-6.762,9.357-6.762c3.107,0,5.7.877,7.237,2.376V37.644c0-1.974-2.01-3.216-5.665-3.216a19.076,19.076,0,0,0-7.164,1.425l-1.645-6.031a32.585,32.585,0,0,1,10.892-1.791C137.081,28.031,141.979,31.54,141.979,37.79Zm-9.5,5.373a5.789,5.789,0,0,0-4.2-1.571c-1.462,0-3.034.438-3.034,1.681s1.572,1.681,3.034,1.681a5.79,5.79,0,0,0,4.2-1.572.166.166,0,0,0,.045-.109A.158.158,0,0,0,132.476,43.163Z"/>
    <path d="M144.794,49.3V28.836h9.869v2.7a9.137,9.137,0,0,1,7.529-3.435c5.629,0,8.955,3.691,8.955,8.881V49.3h-9.869V37.571a2.469,2.469,0,0,0-2.7-2.522c-1.353,0-2.595.658-3.911,2.412V49.3Z"/>
    <path d="M42.369,83.321a15.115,15.115,0,0,1-7.968,2.12c-5.3,0-9.1-2.924-9.1-8.443v-6.25h-3.29V64.169H25.3V59.454h9.868v4.715H42.15v6.579H35.169v4.678c0,1.462,1.023,2.522,2.887,2.522a8.313,8.313,0,0,0,3.107-.768Z"/>
    <path d="M70.44,72.319V84.637H60.572V72.9a2.47,2.47,0,0,0-2.705-2.522c-1.352,0-2.595.658-3.911,2.412V84.637H44.087V57.59h9.869v9.284a9.136,9.136,0,0,1,7.529-3.436C67.114,63.438,70.44,67.129,70.44,72.319Z"/>
    <path d="M87.145,79.081a9.743,9.743,0,0,0,6.213-1.827l4.678,4.715c-3,2.631-6.907,3.545-11.44,3.545-9.137,0-14.437-4.13-14.437-11.111,0-6.908,5.227-11.111,13.67-11.111,7.273,0,13.012,3.582,13.012,10.782a7.93,7.93,0,0,1-.293,2.339H81.479C82.174,78.423,84.074,79.081,87.145,79.081Zm-5.556-7.054h8.443c-.621-1.572-1.937-2.449-4.13-2.449C83.855,69.578,82.283,70.309,81.589,72.027Z"/>
    <path d="M120.954,78.021l-2.7,2.7v3.911h-9.869V57.59h9.869V71.515l6.542-7.346h10.49l-7.858,8.479,8.26,11.989H125.34Z"/>
    <path d="M135.721,58.467c0-2.668,2.23-4.35,5.446-4.35s5.446,1.682,5.446,4.35-2.229,4.349-5.446,4.349S135.721,61.135,135.721,58.467ZM146.1,84.637h-9.869V64.169H146.1Z"/>
    <path d="M186.673,64.169l-6.945,20.468h-9.174l-3.619-11.4-3.618,11.4h-9.174L147.2,64.169h9.283l3.071,10.745,3.289-10.745h8.333l3.29,10.745,3.07-10.745Z"/>
    <path d="M187.259,58.467c0-2.668,2.23-4.35,5.446-4.35s5.446,1.682,5.446,4.35-2.23,4.349-5.446,4.349S187.259,61.135,187.259,58.467Zm10.38,26.17h-9.868V64.169h9.868Z"/>
  </g>
</svg>
